Coordinates
version=1
nRows=21
nColumns=22
inDegrees=yes

Units are S.I. units (second, meters, Newtons, ...)
If the header above contains a line with 'inDegrees', this indicates whether rotational values are in degrees (yes) or radians (no).

endheader
time	pelvis_tilt	pelvis_list	pelvis_rotation	pelvis_tx	pelvis_ty	pelvis_tz	hip_flexion_r	hip_adduction_r	hip_rotation_r	knee_angle_r	ankle_angle_r	subtalar_angle_r	hip_flexion_l	hip_adduction_l	hip_rotation_l	knee_angle_l	ankle_angle_l	subtalar_angle_l	lumbar_extension	lumbar_bending	lumbar_rotation
      3.76000000	      1.31315214	     -0.99980831	    -29.55452493	      0.35383509	      0.90727857	     -0.42342156	     27.98905217	      4.10991166	    -13.87213404	    -38.25264814	     -0.02205149	     -4.70243043	     -7.35361723	     -6.25550828	    -29.54230886	    -18.74529421	     14.48156694	      6.43328372	    -11.97699247	     -2.93906241	     -8.17939285
      3.77000000	      1.25301997	     -1.01760085	    -29.75267348	      0.36072201	      0.90606831	     -0.42086871	     27.67138524	      4.17269594	    -14.97439498	    -34.73185051	      0.10957342	     -4.77418993	     -7.91173275	     -6.14411493	    -29.76669010	    -18.62968627	     14.71533816	      6.58813484	    -11.95699413	     -2.90617625	     -8.38550621
      3.78000000	      1.20671030	     -1.01207682	    -29.92102950	      0.36769556	      0.90476633	     -0.41812398	     27.29384285	      4.23220845	    -16.07298469	    -31.17658124	      0.26328955	     -4.86872041	     -8.47538357	     -6.01541087	    -29.96122711	    -18.51368146	     14.92818520	      6.74317160	    -11.91978325	     -2.90049091	     -8.58962461
      3.79000000	      1.17104951	     -0.98144731	    -30.06188964	      0.37474199	      0.90337310	     -0.41517804	     26.87993799	      4.28895798	    -17.16355274	    -27.63609345	      0.45002324	     -4.95625491	     -9.04167351	     -5.87263644	    -30.13780964	    -18.39535989	     15.12343014	      6.89930611	    -11.86159462	     -2.92248092	     -8.79759687
      3.80000000	      1.14557429	     -0.93332456	    -30.17558868	      0.38184927	      0.90190163	     -0.41202879	     26.44402124	      4.35086556	    -18.23345631	    -24.16160777	      0.67497941	     -5.00325134	     -9.61186694	     -5.72508607	    -30.29039308	    -18.27923220	     15.29842944	      7.06576659	    -11.78821577	     -2.96509275	     -9.00475015
      3.81000000	      1.11785910	     -0.86218958	    -30.25756632	      0.38901544	      0.90034444	     -0.40869125	     26.02253951	      4.41133409	    -19.27646961	    -20.81957811	      0.92927657	     -4.96423380	    -10.16172661	     -5.58162830	    -30.42118191	    -18.18478565	     15.44166487	      7.22731928	    -11.68492095	     -3.02259903	     -9.22214899
      3.82000000	      1.10079156	     -0.77545491	    -30.32068228	      0.39624559	      0.89873548	     -0.40515090	     25.62044945	      4.46644471	    -20.27038201	    -17.68832907	      1.20795822	     -4.82060758	    -10.71671445	     -5.43616871	    -30.52489199	    -18.09709024	     15.55478632	      7.40941248	    -11.56973269	     -3.09558698	     -9.44353638
      3.83000000	      1.08889053	     -0.67352409	    -30.35532078	      0.40356220	      0.89709055	     -0.40144095	     25.26118260	      4.49970463	    -21.22147637	    -14.84988730	      1.49914997	     -4.56796507	    -11.26246122	     -5.29673293	    -30.58703010	    -18.03276053	     15.62257224	      7.60168373	    -11.43794114	     -3.17204232	     -9.68349555
      3.84000000	      1.09374523	     -0.56516794	    -30.37294279	      0.41096516	      0.89544401	     -0.39754269	     24.95396250	      4.49843972	    -22.14483362	    -12.40738196	      1.80990686	     -4.21806722	    -11.81877726	     -5.16344211	    -30.60587487	    -17.98917932	     15.64234036	      7.81905848	    -11.31256178	     -3.25350666	     -9.93096632
      3.85000000	      1.11337002	     -0.45944940	    -30.37341518	      0.41850104	      0.89382947	     -0.39347789	     24.71187759	      4.44900228	    -23.05156822	    -10.45427131	      2.14744069	     -3.81837529	    -12.38583668	     -5.04425710	    -30.56881581	    -17.97439150	     15.60285348	      8.05521289	    -11.19211680	     -3.32061514	    -10.19116440
      3.86000000	      1.14611673	     -0.36366153	    -30.36567844	      0.42617783	      0.89227147	     -0.38923796	     24.54582261	      4.34384441	    -23.94716040	     -9.06515602	      2.51107459	     -3.44501538	    -12.96736736	     -4.94559814	    -30.47980810	    -17.98973518	     15.50474203	      8.29881478	    -11.08067657	     -3.36418703	    -10.46154995
      3.87000000	      1.19541124	     -0.31455035	    -30.35054759	      0.43401965	      0.89082792	     -0.38479661	     24.41902601	      4.20639413	    -24.82293061	     -8.25061792	      2.88036749	     -3.13550327	    -13.58338161	     -4.90156049	    -30.31882459	    -18.04900076	     15.33223191	      8.57876536	    -11.00089361	     -3.35030163	    -10.72245476
      3.88000000	      1.26044535	     -0.26318521	    -30.32059582	      0.44203568	      0.88947416	     -0.38020007	     24.38602614	      3.96644607	    -25.70240672	     -8.08593572	      3.30192869	     -3.04876488	    -14.19636019	     -4.86979671	    -30.08615523	    -18.15959555	     15.08843137	      8.78467274	    -10.92749263	     -3.31909237	    -11.04015918
      3.89000000	      1.34854871	     -0.28791917	    -30.29038282	      0.45025506	      0.88829580	     -0.37535499	     24.34410695	      3.71216688	    -26.56716498	     -8.45403954	      3.66202440	     -3.14392856	    -14.86592205	     -4.91564265	    -29.77621926	    -18.32059406	     14.75834696	      9.05026366	    -10.90318785	     -3.20429895	    -11.33975309
      3.90000000	      1.43180287	     -0.34190255	    -30.26815413	      0.45865856	      0.88721791	     -0.37022345	     24.33428592	      3.42781718	    -27.33510778	     -9.30592671	      4.05187238	     -3.39116416	    -15.52430159	     -5.02060845	    -29.41480015	    -18.56426445	     14.31645109	      9.23581609	    -10.86912303	     -3.04175728	    -11.66641020
      3.91000000	      1.54497310	     -0.47593503	    -30.24808415	      0.46722544	      0.88634720	     -0.36480379	     24.24764517	      3.16924607	    -28.05771468	    -10.46197949	      4.24522483	     -4.07376015	    -16.22886455	     -5.20673504	    -28.94773292	    -18.88827894	     13.80348566	      9.53891607	    -10.89727910	     -2.80389328	    -11.97266767
      3.92000000	      1.62658067	     -0.64207296	    -30.26120987	      0.47592548	      0.88558258	     -0.35899212	     24.15406862	      2.96004082	    -28.65905392	    -11.82920600	      4.38333269	     -4.87170436	    -16.88592881	     -5.47055497	    -28.45288847	    -19.32582083	     13.13978526	      9.74551400	    -10.88600344	     -2.52093664	    -12.25375333
      3.93000000	      1.67684839	     -0.86051706	    -30.31628656	      0.48471379	      0.88497895	     -0.35278001	     24.01409066	      2.85073238	    -29.15957367	    -13.25400284	      4.38965007	     -5.87921502	    -17.49627786	     -5.82699806	    -27.92156747	    -19.89126038	     12.31999448	      9.94582929	    -10.85482288	     -2.17490780	    -12.49056900
      3.94000000	      1.68310883	     -1.12311924	    -30.42956830	      0.49351308	      0.88455951	     -0.34614435	     23.83531309	      2.86971087	    -29.55534518	    -14.63000874	      4.23944426	     -7.08574324	    -18.03122737	     -6.27571892	    -27.36535720	    -20.60116307	     11.32177785	     10.17568160	    -10.79152177	     -1.77951808	    -12.66523853
      3.95000000	      1.63558957	     -1.41494820	    -30.62587006	      0.50223613	      0.88434574	     -0.33907390	     23.63499572	      3.03323494	    -29.81578724	    -15.88859992	      3.92231893	     -8.44710122	    -18.45873459	     -6.80461580	    -26.79861997	    -21.47315473	     10.12619268	     10.46784291	    -10.68436293	     -1.35495577	    -12.75269807
      3.96000000	      1.53610144	     -1.70878199	    -30.92968011	      0.51080275	      0.88434156	     -0.33159627	     23.43670811	      3.33063610	    -29.87169479	    -17.00984588	      3.45735610	     -9.87585503	    -18.75230636	     -7.38130216	    -26.23410737	    -22.51970255	      8.73097448	     10.84699250	    -10.52884289	     -0.93193770	    -12.75436819
